<?xml version="1.0" encoding="UTF-8"?>
<svg width="331.26" height="296.51" version="1.1" viewBox="0 0 331.26 296.51" xmlns="http://www.w3.org/2000/svg" xmlns:xlink="http://www.w3.org/1999/xlink">
 <defs>
  <linearGradient id="linearGradient5186">
   <stop stop-color="#ef2008" offset="0"/>
   <stop stop-color="#ff6428" offset="1"/>
  </linearGradient>
  <linearGradient id="linearGradient964" x1="51.714" x2="210.4" y1="99.77" y2="99.77" gradientTransform="translate(25.827 -20.425)" gradientUnits="userSpaceOnUse" xlink:href="#linearGradient5186"/>
  <linearGradient id="linearGradient888-7" x1="171.37" x2="279.79" y1="186.73" y2="150.06" gradientTransform="translate(-52.823 -51.732)" gradientUnits="userSpaceOnUse">
   <stop stop-color="#157ee9" offset="0"/>
   <stop stop-color="#3ecc78" offset="1"/>
  </linearGradient>
  <linearGradient id="linearGradient1160">
   <stop stop-color="#0d6eff" offset="0"/>
   <stop stop-color="#45da64" offset="1"/>
  </linearGradient>
  <linearGradient id="linearGradient902" x1="225.77" x2="1111.2" y1="173.93" y2="173.93" gradientTransform="matrix(.45446 0 0 .45446 -81.538 174.14)" gradientUnits="userSpaceOnUse" xlink:href="#linearGradient5186"/>
  <linearGradient id="linearGradient935" x1="239.1" x2="855.44" y1="174.31" y2="174.31" gradientTransform="matrix(.50433 0 0 .45445 4.8886 224.14)" gradientUnits="userSpaceOnUse" xlink:href="#linearGradient1160"/>
  <linearGradient id="linearGradient947" x1="225.77" x2="1111.2" y1="173.93" y2="173.93" gradientTransform="matrix(.47133 0 0 .47133 207.53 120.94)" gradientUnits="userSpaceOnUse" xlink:href="#linearGradient5186"/>
 </defs>
 <g transform="translate(-25 -25)" fill="url(#linearGradient902)" stroke-width="1.2576">
  <path d="m34.256 236.29q7.3443 0 11.268 2.817 3.974 2.7667 3.974 8.3 0 3.0182-1.1067 5.1812-1.0564 2.1127-3.1188 3.4709-2.0121 1.3079-4.9297 1.9115-2.9176 0.60364-6.5897 0.60364h-3.8733v12.928h-4.8794v-34.357q2.0624-0.50303 4.5776-0.65394 2.5655-0.20121 4.6782-0.20121zm0.40243 4.2758q-3.1188 0-4.7788 0.15091v13.682h3.6721q2.5152 0 4.5273-0.30182 2.0121-0.35212 3.3703-1.1067 1.4085-0.80485 2.163-2.163t0.75455-3.4709q0-2.0121-0.80485-3.32-0.75455-1.3079-2.1127-2.0624-1.3079-0.80485-3.0685-1.1067t-3.7224-0.30182z"/>
  <path d="m72.637 256.91q0.80485 1.0061 2.0121 2.6661 1.2576 1.6097 2.5655 3.6218 1.3079 1.9618 2.5655 4.1249 1.3079 2.163 2.2133 4.1752h-5.3321q-1.0061-1.9115-2.2133-3.8734-1.157-1.9618-2.3643-3.7224-1.2073-1.8109-2.4146-3.3703-1.157-1.5594-2.1127-2.7164-0.65394 0.0503-1.3582 0.0503-0.65394 0-1.3582 0h-4.3764v13.632h-4.8794v-34.357q2.0624-0.50303 4.5776-0.65394 2.5655-0.20121 4.6782-0.20121 7.3443 0 11.167 2.7667 3.8733 2.7667 3.8733 8.2497 0 3.4709-1.8612 5.9358-1.8109 2.4649-5.3824 3.6721zm-7.3946-16.349q-3.1188 0-4.7788 0.15091v13.129h3.4709q2.5152 0 4.5273-0.25151 2.0121-0.25152 3.3703-0.95576 1.4085-0.70425 2.163-1.9618 0.75455-1.3079 0.75455-3.4206 0-1.9618-0.75455-3.2697t-2.0624-2.0624q-1.2576-0.75454-3.0182-1.0564-1.7103-0.30182-3.6721-0.30182z"/>
  <path d="m87.225 236.64h4.8794v34.86h-4.8794z"/>
  <path d="m128.93 236.64q-1.9115 5.5334-3.6721 10.262-1.7103 4.6782-3.3703 8.9037t-3.32 8.0988q-1.6097 3.823-3.32 7.5958h-4.5776q-1.7103-3.7727-3.3703-7.5958-1.6097-3.8733-3.32-8.0988-1.66-4.2255-3.4206-8.9037-1.7606-4.7285-3.6218-10.262h5.3824q2.7164 7.9479 5.3321 15.292 2.6158 7.3443 5.3824 13.783 2.7667-6.3885 5.3824-13.733 2.6158-7.3946 5.2818-15.342z"/>
  <path d="m153.93 271.5q-0.85516-2.2636-1.6097-4.4267-0.75455-2.2133-1.5594-4.477h-15.795l-3.1691 8.9037h-5.0806q2.0121-5.5334 3.7727-10.212 1.7606-4.7285 3.4206-8.954 1.7103-4.2255 3.3703-8.0485 1.66-3.8733 3.4709-7.6461h4.477q1.8109 3.7727 3.4709 7.6461 1.66 3.823 3.32 8.0485 1.7103 4.2255 3.4709 8.954 1.7606 4.6782 3.7727 10.212zm-4.5776-12.928q-1.6097-4.3764-3.2194-8.4509-1.5594-4.1249-3.2697-7.8976-1.7606 3.7727-3.3703 7.8976-1.5594 4.0746-3.1188 8.4509z"/>
  <path d="m178.02 272.26q-3.6721 0-6.6903-1.2073t-5.1812-3.5212-3.3703-5.6843q-1.157-3.4206-1.157-7.797t1.3079-7.7467q1.3582-3.4206 3.6218-5.7346t5.2818-3.5212q3.0182-1.2073 6.4388-1.2073 2.163 0 3.8734 0.30182 1.7606 0.30182 3.0182 0.70424 1.3079 0.40243 2.1127 0.80485 0.80486 0.40243 1.1067 0.60364l-1.4085 4.0243q-0.45273-0.30182-1.3079-0.65395-0.85515-0.35212-1.9618-0.70424-1.0564-0.35212-2.3642-0.55334-1.2576-0.25151-2.5655-0.25151-2.7667 0-4.98 0.95576t-3.7727 2.7667q-1.5594 1.8109-2.4146 4.4267-0.80485 2.5655-0.80485 5.7849 0 3.1188 0.70425 5.6843 0.75455 2.5655 2.2133 4.4267 1.4588 1.8109 3.6218 2.817 2.2133 1.0061 5.1309 1.0061 3.3703 0 5.5837-0.70424 2.2133-0.70425 3.32-1.2576l1.2576 4.0242q-0.35212 0.25152-1.2576 0.65394-0.90546 0.35213-2.2636 0.70425-1.3582 0.35212-3.1691 0.60364-1.8109 0.25151-3.9236 0.25151z"/>
  <path d="m203.37 271.5v-13.984q-3.4709-5.3824-6.5394-10.614-3.0685-5.2315-5.7849-10.262h5.7346q1.9115 4.1249 4.2758 8.4006 2.3642 4.2255 4.8794 8.1491 2.4649-3.9236 4.8291-8.1491 2.3642-4.2758 4.3261-8.4006h5.4327q-2.7164 5.0303-5.7849 10.262-3.0685 5.1812-6.4891 10.513v14.085z"/>
  <path d="m233.25 268.03q7.6461 0 7.6461-5.2315 0-1.6097-0.70424-2.7164-0.65394-1.157-1.8109-1.9618-1.157-0.85515-2.6661-1.4588-1.4588-0.60364-3.1188-1.2073-1.9115-0.65394-3.6218-1.4588-1.7103-0.85515-2.9679-1.9618-1.2576-1.157-2.0121-2.7164-0.70425-1.5594-0.70425-3.7727 0-4.5776 3.1188-7.143t8.6018-2.5655q3.1691 0 5.7346 0.70424 2.6158 0.65394 3.823 1.4588l-1.5594 3.974q-1.0564-0.65394-3.1691-1.2576-2.0624-0.65394-4.8291-0.65394-1.4085 0-2.6158 0.30181-1.2073 0.30182-2.1127 0.90546-0.90546 0.60364-1.4588 1.5594-0.50303 0.90546-0.50303 2.163 0 1.4085 0.55334 2.3642 0.55333 0.95576 1.5594 1.7103 1.0061 0.70424 2.3139 1.3079 1.3582 0.60364 2.9679 1.2073 2.2636 0.90546 4.1249 1.8109 1.9115 0.90546 3.2697 2.163 1.4085 1.2576 2.163 3.0182 0.75455 1.7103 0.75455 4.1752 0 4.5776-3.3703 7.0424-3.32 2.4648-9.4067 2.4648-2.0624 0-3.823-0.30182-1.7103-0.25151-3.0685-0.60363-1.3582-0.40243-2.3642-0.80486-0.95576-0.45272-1.5091-0.75454l1.4588-4.0243q1.157 0.65394 3.5212 1.4588t5.7849 0.80485z"/>
  <path d="m275.21 271.5q-0.85516-2.2636-1.6097-4.4267-0.75455-2.2133-1.5594-4.477h-15.795l-3.1691 8.9037h-5.0806q2.0121-5.5334 3.7727-10.212 1.7606-4.7285 3.4206-8.954 1.7103-4.2255 3.3703-8.0485 1.66-3.8733 3.4709-7.6461h4.477q1.8109 3.7727 3.4709 7.6461 1.66 3.823 3.32 8.0485 1.7103 4.2255 3.4709 8.954 1.7606 4.6782 3.7727 10.212zm-4.5776-12.928q-1.6097-4.3764-3.2194-8.4509-1.5594-4.1249-3.2697-7.8976-1.7606 3.7727-3.3703 7.8976-1.5594 4.0746-3.1188 8.4509z"/>
  <path d="m285.27 271.5v-34.86h21.027v4.1752h-16.147v10.513h14.336v4.1249h-14.336v16.047z"/>
  <path d="m312.28 271.5v-34.86h21.278v4.1752h-16.399v10.362h14.588v4.0746h-14.588v12.073h17.656v4.1752z"/>
 </g>
 <path d="m156.88 0c-42.614 0.08425-77.552 33.815-79.133 76.4h35.916c1.7666-24.5 20.72-43.429 43.547-43.492 22.828 0.06188 41.782 18.991 43.549 43.492h35.395c-1.5831-42.639-36.605-76.392-79.273-76.4z" fill="url(#linearGradient964)"/>
 <path d="m63.041 84.14v21.463h185.53v-21.463zm0 29.203v21.268h185.53v-21.268zm24.018 29.008c13.354 25.015 39.639 41.989 69.826 42.049 30.241-6e-3 56.593-16.992 69.969-42.049z" fill="url(#linearGradient888-7)"/>
 <g transform="translate(-25 -25)" fill="url(#linearGradient935)" stroke-width="1.2576">
  <path d="m146.39 317.28v4.2254h-23.278v-34.86h5.4148v30.634z"/>
  <path d="m152.09 286.64h5.4148v34.86h-5.4148z"/>
  <path d="m193.62 321.5q-1.2281-1.8612-2.847-4.1751-1.563-2.3139-3.4052-4.7787-1.8422-2.5151-3.8518-5.0806-1.9538-2.5654-3.9076-4.9296-1.9538-2.4145-3.796-4.5272t-3.4052-3.7224v27.214h-5.3032v-34.86h4.2984q2.6237 2.5151 5.5823 5.8854 3.0144 3.32 5.9172 6.8914 2.9586 3.5212 5.5265 6.9418 2.6237 3.4206 4.41 6.0866v-25.805h5.3032v34.86z"/>
  <path d="m236.38 286.64q-1.7305 1.7103-3.9076 3.823-2.1771 2.0624-4.5775 4.2757-2.3446 2.163-4.6891 4.2757-2.3446 2.1127-4.41 3.9236 2.4004 1.5091 5.0799 3.7224t5.2474 4.7284q2.5678 2.5151 4.8008 5.1308 2.2887 2.6157 3.796 4.98h-6.3638q-1.6747-2.3642-3.8518-4.7284-2.1771-2.4145-4.6333-4.5775-2.4004-2.2133-4.9124-4.0745-2.4562-1.8612-4.8008-3.1691v16.55h-5.4148v-34.86h5.4148v15.393q1.9538-1.66 4.2984-3.7224 2.3446-2.1127 4.6333-4.2254t4.2984-4.0242q2.0654-1.9618 3.461-3.4206z"/>
 </g>
 <path d="m321.07 204.6v1.5233h-2.6221v6.7925h-1.7231v-6.7925h-2.6221v-1.5233zm9.4896 0q0.19978 1.2736 0.34962 3.2714 0.14983 1.9728 0.34961 5.0444h-1.7481q-0.025-0.62432-0.05-1.3236-0.025-0.7242-0.0749-1.4234-0.025-0.7242-0.0749-1.4234-0.05-0.69923-0.0999-1.2986-0.2747 0.47448-0.59934 1.1238-0.32464 0.62431-0.64929 1.2486-0.29967 0.62431-0.59934 1.1737-0.27469 0.5494-0.42453 0.87404h-1.2236q-0.14984-0.32464-0.44951-0.87404-0.27469-0.54939-0.59934-1.1737-0.29967-0.62432-0.64928-1.2486-0.32464-0.64928-0.57437-1.1238-0.0499 0.59934-0.0999 1.2986-0.0499 0.69923-0.0999 1.4234-0.025 0.69923-0.0499 1.4234-0.025 0.69923-0.05 1.3236h-1.7231q0.19978-3.0716 0.34961-5.0444 0.14984-1.9978 0.34962-3.2714h1.6482q0.19978 0.42454 0.49945 1.0239t0.64929 1.2986q0.34961 0.69923 0.69923 1.4234 0.37459 0.7242 0.7242 1.3985 0.32464-0.67426 0.69923-1.3985t0.7242-1.4234q0.34962-0.69923 0.64929-1.2986t0.49945-1.0239z" fill="url(#linearGradient947)" stroke-width="1.2576"/>
</svg>
