<?xml version="1.0" encoding="UTF-8" standalone="no"?>
<svg
   version="1.1"
   viewBox="0 0 381.26229 347.25495"
   id="svg12"
   width="381.2623"
   height="347.25494"
   xmlns:xlink="http://www.w3.org/1999/xlink"
   xmlns="http://www.w3.org/2000/svg"
   xmlns:svg="http://www.w3.org/2000/svg">
  <defs
     id="defs16">
    <linearGradient
       id="linearGradient886">
      <stop
         style="stop-color:#3771c8;stop-opacity:1"
         offset="0"
         id="stop882" />
      <stop
         style="stop-color:#2ca089;stop-opacity:1"
         offset="1"
         id="stop884" />
    </linearGradient>
    <linearGradient
       id="linearGradient5186">
      <stop
         style="stop-color:#ef2008;stop-opacity:1"
         offset="0"
         id="stop5182" />
      <stop
         style="stop-color:#ff6428;stop-opacity:1"
         offset="1"
         id="stop5184" />
    </linearGradient>
    <linearGradient
       xlink:href="#linearGradient886"
       id="linearGradient11474"
       gradientUnits="userSpaceOnUse"
       gradientTransform="matrix(0.46303176,0,0,0.46303176,-56.588306,251.53577)"
       x1="225.77231"
       y1="173.93456"
       x2="1111.1683"
       y2="173.93456" />
    <linearGradient
       xlink:href="#linearGradient5186"
       id="linearGradient964"
       gradientUnits="userSpaceOnUse"
       gradientTransform="translate(50.827111,4.574805)"
       x1="51.713676"
       y1="99.769508"
       x2="210.40228"
       y2="99.769508" />
    <linearGradient
       xlink:href="#linearGradient1884"
       id="linearGradient888-7"
       x1="171.37463"
       y1="186.7283"
       x2="279.79095"
       y2="150.06499"
       gradientUnits="userSpaceOnUse"
       gradientTransform="translate(-27.823043,-26.731615)" />
    <linearGradient
       id="linearGradient1884">
      <stop
         style="stop-color:#157ee9;stop-opacity:1"
         offset="0"
         id="stop1880" />
      <stop
         style="stop-color:#3ecc78;stop-opacity:1"
         offset="1"
         id="stop1882" />
    </linearGradient>
    <linearGradient
       xlink:href="#linearGradient1160"
       id="linearGradient1094-2"
       gradientUnits="userSpaceOnUse"
       gradientTransform="matrix(0.4787416,0,0,0.4787416,-61.976132,260.06994)"
       x1="239.09921"
       y1="174.31239"
       x2="855.43896"
       y2="174.31239" />
    <linearGradient
       id="linearGradient1160">
      <stop
         style="stop-color:#0d6eff;stop-opacity:1"
         offset="0"
         id="stop1156" />
      <stop
         style="stop-color:#45da64;stop-opacity:1"
         offset="1"
         id="stop1158" />
    </linearGradient>
    <linearGradient
       xlink:href="#linearGradient1160"
       id="linearGradient1207"
       gradientUnits="userSpaceOnUse"
       gradientTransform="matrix(0.4787416,0,0,0.4787416,-61.976131,260.06994)"
       x1="239.09921"
       y1="174.31239"
       x2="855.43896"
       y2="174.31239" />
    <linearGradient
       xlink:href="#linearGradient1160"
       id="linearGradient1422"
       gradientUnits="userSpaceOnUse"
       gradientTransform="matrix(0.4787416,0,0,0.4787416,-61.976131,260.06994)"
       x1="239.09921"
       y1="174.31239"
       x2="855.43896"
       y2="174.31239" />
    <linearGradient
       xlink:href="#linearGradient5186"
       id="linearGradient902"
       gradientUnits="userSpaceOnUse"
       gradientTransform="matrix(0.45445997,0,0,0.45445997,-81.537582,174.14353)"
       x1="225.77231"
       y1="173.93456"
       x2="1111.1683"
       y2="173.93456" />
    <linearGradient
       xlink:href="#linearGradient5186"
       id="linearGradient904"
       gradientUnits="userSpaceOnUse"
       gradientTransform="matrix(0.45445997,0,0,0.45445997,-81.537582,174.14353)"
       x1="225.77231"
       y1="173.93456"
       x2="1111.1683"
       y2="173.93456" />
    <linearGradient
       xlink:href="#linearGradient5186"
       id="linearGradient906"
       gradientUnits="userSpaceOnUse"
       gradientTransform="matrix(0.45445997,0,0,0.45445997,-81.537582,174.14353)"
       x1="225.77231"
       y1="173.93456"
       x2="1111.1683"
       y2="173.93456" />
    <linearGradient
       xlink:href="#linearGradient5186"
       id="linearGradient908"
       gradientUnits="userSpaceOnUse"
       gradientTransform="matrix(0.45445997,0,0,0.45445997,-81.537582,174.14353)"
       x1="225.77231"
       y1="173.93456"
       x2="1111.1683"
       y2="173.93456" />
    <linearGradient
       xlink:href="#linearGradient5186"
       id="linearGradient910"
       gradientUnits="userSpaceOnUse"
       gradientTransform="matrix(0.45445997,0,0,0.45445997,-81.537582,174.14353)"
       x1="225.77231"
       y1="173.93456"
       x2="1111.1683"
       y2="173.93456" />
    <linearGradient
       xlink:href="#linearGradient5186"
       id="linearGradient912"
       gradientUnits="userSpaceOnUse"
       gradientTransform="matrix(0.45445997,0,0,0.45445997,-81.537582,174.14353)"
       x1="225.77231"
       y1="173.93456"
       x2="1111.1683"
       y2="173.93456" />
    <linearGradient
       xlink:href="#linearGradient5186"
       id="linearGradient914"
       gradientUnits="userSpaceOnUse"
       gradientTransform="matrix(0.45445997,0,0,0.45445997,-81.537582,174.14353)"
       x1="225.77231"
       y1="173.93456"
       x2="1111.1683"
       y2="173.93456" />
    <linearGradient
       xlink:href="#linearGradient5186"
       id="linearGradient916"
       gradientUnits="userSpaceOnUse"
       gradientTransform="matrix(0.45445997,0,0,0.45445997,-81.537582,174.14353)"
       x1="225.77231"
       y1="173.93456"
       x2="1111.1683"
       y2="173.93456" />
    <linearGradient
       xlink:href="#linearGradient5186"
       id="linearGradient918"
       gradientUnits="userSpaceOnUse"
       gradientTransform="matrix(0.45445997,0,0,0.45445997,-81.537582,174.14353)"
       x1="225.77231"
       y1="173.93456"
       x2="1111.1683"
       y2="173.93456" />
    <linearGradient
       xlink:href="#linearGradient5186"
       id="linearGradient920"
       gradientUnits="userSpaceOnUse"
       gradientTransform="matrix(0.45445997,0,0,0.45445997,-81.537582,174.14353)"
       x1="225.77231"
       y1="173.93456"
       x2="1111.1683"
       y2="173.93456" />
    <linearGradient
       xlink:href="#linearGradient5186"
       id="linearGradient922"
       gradientUnits="userSpaceOnUse"
       gradientTransform="matrix(0.45445997,0,0,0.45445997,-81.537582,174.14353)"
       x1="225.77231"
       y1="173.93456"
       x2="1111.1683"
       y2="173.93456" />
    <linearGradient
       xlink:href="#linearGradient1160"
       id="linearGradient935"
       gradientUnits="userSpaceOnUse"
       gradientTransform="matrix(0.50432732,0,0,0.4544539,4.8885929,224.14436)"
       x1="239.09921"
       y1="174.31239"
       x2="855.43896"
       y2="174.31239" />
    <linearGradient
       xlink:href="#linearGradient1160"
       id="linearGradient937"
       gradientUnits="userSpaceOnUse"
       gradientTransform="matrix(0.50432732,0,0,0.4544539,4.8885929,224.14436)"
       x1="239.09921"
       y1="174.31239"
       x2="855.43896"
       y2="174.31239" />
    <linearGradient
       xlink:href="#linearGradient1160"
       id="linearGradient939"
       gradientUnits="userSpaceOnUse"
       gradientTransform="matrix(0.50432732,0,0,0.4544539,4.8885929,224.14436)"
       x1="239.09921"
       y1="174.31239"
       x2="855.43896"
       y2="174.31239" />
    <linearGradient
       xlink:href="#linearGradient1160"
       id="linearGradient941"
       gradientUnits="userSpaceOnUse"
       gradientTransform="matrix(0.50432732,0,0,0.4544539,4.8885929,224.14436)"
       x1="239.09921"
       y1="174.31239"
       x2="855.43896"
       y2="174.31239" />
    <linearGradient
       xlink:href="#linearGradient5186"
       id="linearGradient947"
       gradientUnits="userSpaceOnUse"
       gradientTransform="matrix(0.47132896,0,0,0.47132896,232.52631,145.93927)"
       x1="225.77231"
       y1="173.93456"
       x2="1111.1683"
       y2="173.93456" />
  </defs>
  <path
     d="m 34.255789,236.28868 q 7.344268,0 11.267917,2.81697 3.973953,2.76668 3.973953,8.30003 0,3.01819 -1.106671,5.18123 -1.056367,2.11274 -3.118798,3.47092 -2.012128,1.30789 -4.929713,1.91152 -2.917586,0.60364 -6.58972,0.60364 h -3.873346 v 12.92793 h -4.87941 v -34.35709 q 2.062431,-0.50303 4.577591,-0.65394 2.565463,-0.20121 4.678197,-0.20121 z m 0.402426,4.27577 q -3.118798,0 -4.778804,0.15091 v 13.68247 h 3.672134 q 2.51516,0 4.527288,-0.30182 2.012128,-0.35212 3.370314,-1.10667 1.408489,-0.80485 2.163037,-2.16304 0.754548,-1.35819 0.754548,-3.47092 0,-2.01213 -0.804851,-3.32001 -0.754548,-1.30788 -2.112734,-2.06243 -1.307883,-0.80485 -3.068495,-1.10667 -1.760612,-0.30182 -3.722437,-0.30182 z"
     style="font-size:50.3032px;line-height:1.25;font-family:Ubuntu;-inkscape-font-specification:Ubuntu;fill:url(#linearGradient902);stroke-width:1.25758"
     id="path849" />
  <path
     d="m 72.637121,256.91299 q 0.804851,1.00606 2.012128,2.66607 1.25758,1.6097 2.565463,3.62183 1.307883,1.96182 2.565463,4.12486 1.307883,2.16304 2.213341,4.17517 h -5.332139 q -1.006064,-1.91153 -2.213341,-3.87335 -1.156974,-1.96183 -2.364251,-3.72244 -1.207276,-1.81091 -2.414553,-3.37031 -1.156974,-1.5594 -2.112735,-2.71637 -0.653941,0.0503 -1.358186,0.0503 -0.653942,0 -1.358186,0 h -4.376379 v 13.63217 h -4.87941 v -34.35709 q 2.062431,-0.50303 4.577591,-0.65394 2.565463,-0.20121 4.678198,-0.20121 7.344267,0 11.16731,2.76667 3.873346,2.76668 3.873346,8.24973 0,3.47092 -1.861218,5.93577 -1.810915,2.46486 -5.382442,3.67214 z M 65.24255,240.56445 q -3.118798,0 -4.778804,0.15091 v 13.12913 h 3.470921 q 2.51516,0 4.527288,-0.25151 2.012128,-0.25152 3.370314,-0.95576 1.40849,-0.70425 2.163038,-1.96183 0.754548,-1.30788 0.754548,-3.42062 0,-1.96182 -0.754548,-3.2697 -0.754548,-1.30789 -2.062431,-2.06244 -1.25758,-0.75454 -3.018192,-1.05636 -1.710309,-0.30182 -3.672134,-0.30182 z"
     style="font-size:50.3032px;line-height:1.25;font-family:Ubuntu;-inkscape-font-specification:Ubuntu;fill:url(#linearGradient904);stroke-width:1.25758"
     id="path851" />
  <path
     d="m 87.225033,236.6408 h 4.879411 v 34.86012 h -4.879411 z"
     style="font-size:50.3032px;line-height:1.25;font-family:Ubuntu;-inkscape-font-specification:Ubuntu;fill:url(#linearGradient906);stroke-width:1.25758"
     id="path853" />
  <path
     d="m 128.92634,236.6408 q -1.91152,5.53335 -3.67214,10.26185 -1.7103,4.6782 -3.37031,8.90367 -1.66001,4.22547 -3.32001,8.09881 -1.6097,3.82305 -3.32001,7.59579 h -4.57759 q -1.71031,-3.77274 -3.37032,-7.59579 -1.6097,-3.87334 -3.32001,-8.09881 -1.66,-4.22547 -3.42062,-8.90367 -1.760608,-4.7285 -3.621827,-10.26185 h 5.382447 q 2.71637,7.9479 5.33213,15.29217 2.61577,7.34427 5.38245,13.78308 2.76667,-6.38851 5.38244,-13.73278 2.61577,-7.39457 5.28184,-15.34247 z"
     style="font-size:50.3032px;line-height:1.25;font-family:Ubuntu;-inkscape-font-specification:Ubuntu;fill:url(#linearGradient908);stroke-width:1.25758"
     id="path855" />
  <path
     d="m 153.92693,271.50092 q -0.85516,-2.26365 -1.60971,-4.42669 -0.75455,-2.21334 -1.5594,-4.47698 h -15.7952 l -3.1691,8.90367 h -5.08063 q 2.01213,-5.53336 3.77274,-10.21155 1.76062,-4.7285 3.42062,-8.95397 1.71031,-4.22547 3.37032,-8.04852 1.66,-3.87334 3.47092,-7.64608 h 4.47698 q 1.81092,3.77274 3.47092,7.64608 1.66001,3.82305 3.32001,8.04852 1.71031,4.22547 3.47092,8.95397 1.76062,4.67819 3.77274,10.21155 z m -4.5776,-12.92793 q -1.6097,-4.37638 -3.2194,-8.45093 -1.5594,-4.12487 -3.26971,-7.89761 -1.76061,3.77274 -3.37031,7.89761 -1.5594,4.07455 -3.1188,8.45093 z"
     style="font-size:50.3032px;line-height:1.25;font-family:Ubuntu;-inkscape-font-specification:Ubuntu;fill:url(#linearGradient910);stroke-width:1.25758"
     id="path857" />
  <path
     d="m 178.02202,272.25546 q -3.67214,0 -6.69033,-1.20727 -3.01819,-1.20728 -5.18123,-3.52123 -2.16304,-2.31394 -3.37031,-5.68426 -1.15698,-3.42062 -1.15698,-7.79699 0,-4.37638 1.30789,-7.7467 1.35818,-3.42062 3.62183,-5.73456 2.26364,-2.31395 5.28183,-3.52123 3.01819,-1.20727 6.43881,-1.20727 2.16304,0 3.87335,0.30182 1.76061,0.30182 3.01819,0.70424 1.30788,0.40243 2.11273,0.80485 0.80486,0.40243 1.10668,0.60364 l -1.40849,4.02426 q -0.45273,-0.30182 -1.30789,-0.65395 -0.85515,-0.35212 -1.96182,-0.70424 -1.05637,-0.35212 -2.36425,-0.55334 -1.25758,-0.25151 -2.56547,-0.25151 -2.76667,0 -4.98001,0.95576 -2.21334,0.95576 -3.77274,2.76668 -1.5594,1.81091 -2.41456,4.42668 -0.80485,2.56546 -0.80485,5.78487 0,3.11879 0.70425,5.68426 0.75455,2.56546 2.21334,4.42668 1.45879,1.81091 3.62183,2.81698 2.21334,1.00606 5.13092,1.00606 3.37032,0 5.58366,-0.70424 2.21334,-0.70425 3.32001,-1.25758 l 1.25758,4.02425 q -0.35212,0.25152 -1.25758,0.65394 -0.90546,0.35213 -2.26364,0.70425 -1.35819,0.35212 -3.1691,0.60364 -1.81092,0.25151 -3.92365,0.25151 z"
     style="font-size:50.3032px;line-height:1.25;font-family:Ubuntu;-inkscape-font-specification:Ubuntu;fill:url(#linearGradient912);stroke-width:1.25758"
     id="path859" />
  <path
     d="m 203.37469,271.50092 v -13.98429 q -3.47092,-5.38245 -6.53942,-10.61398 -3.06849,-5.23153 -5.78486,-10.26185 h 5.73456 q 1.91152,4.12486 4.27577,8.40063 2.36425,4.22547 4.87941,8.14912 2.46486,-3.92365 4.82911,-8.14912 2.36425,-4.27577 4.32608,-8.40063 h 5.43274 q -2.71637,5.03032 -5.78487,10.26185 -3.06849,5.18123 -6.48911,10.51337 v 14.0849 z"
     style="font-size:50.3032px;line-height:1.25;font-family:Ubuntu;-inkscape-font-specification:Ubuntu;fill:url(#linearGradient914);stroke-width:1.25758"
     id="path861" />
  <path
     d="m 233.25478,268.02999 q 7.64608,0 7.64608,-5.23153 0,-1.6097 -0.70424,-2.71637 -0.65394,-1.15697 -1.81092,-1.96183 -1.15697,-0.85515 -2.66607,-1.45879 -1.45879,-0.60364 -3.1188,-1.20728 -1.91152,-0.65394 -3.62183,-1.45879 -1.7103,-0.85515 -2.96788,-1.96182 -1.25758,-1.15698 -2.01213,-2.71638 -0.70425,-1.55939 -0.70425,-3.77274 0,-4.57759 3.1188,-7.14305 3.1188,-2.56546 8.60185,-2.56546 3.1691,0 5.73456,0.70424 2.61577,0.65394 3.82305,1.45879 l -1.5594,3.97396 q -1.05637,-0.65394 -3.16911,-1.25758 -2.06243,-0.65394 -4.8291,-0.65394 -1.40849,0 -2.61577,0.30181 -1.20728,0.30182 -2.11273,0.90546 -0.90546,0.60364 -1.4588,1.5594 -0.50303,0.90546 -0.50303,2.16304 0,1.40849 0.55334,2.36425 0.55333,0.95576 1.5594,1.71031 1.00606,0.70424 2.31394,1.30788 1.35819,0.60364 2.96789,1.20728 2.26365,0.90546 4.12486,1.81091 1.91153,0.90546 3.26971,2.16304 1.40849,1.25758 2.16304,3.01819 0.75455,1.71031 0.75455,4.17517 0,4.57759 -3.37032,7.04245 -3.32001,2.46485 -9.40669,2.46485 -2.06244,0 -3.82305,-0.30182 -1.71031,-0.25151 -3.06849,-0.60363 -1.35819,-0.40243 -2.36425,-0.80486 -0.95576,-0.45272 -1.5091,-0.75454 l 1.45879,-4.02426 q 1.15698,0.65394 3.52123,1.45879 2.36425,0.80485 5.78487,0.80485 z"
     style="font-size:50.3032px;line-height:1.25;font-family:Ubuntu;-inkscape-font-specification:Ubuntu;fill:url(#linearGradient916);stroke-width:1.25758"
     id="path863" />
  <path
     d="m 275.20762,271.50092 q -0.85516,-2.26365 -1.6097,-4.42669 -0.75455,-2.21334 -1.5594,-4.47698 h -15.79521 l -3.1691,8.90367 h -5.08062 q 2.01213,-5.53336 3.77274,-10.21155 1.76061,-4.7285 3.42061,-8.95397 1.71031,-4.22547 3.37032,-8.04852 1.66,-3.87334 3.47092,-7.64608 h 4.47698 q 1.81092,3.77274 3.47093,7.64608 1.66,3.82305 3.32001,8.04852 1.71031,4.22547 3.47092,8.95397 1.76061,4.67819 3.77274,10.21155 z m -4.57759,-12.92793 q -1.60971,-4.37638 -3.21941,-8.45093 -1.5594,-4.12487 -3.26971,-7.89761 -1.76061,3.77274 -3.37031,7.89761 -1.5594,4.07455 -3.1188,8.45093 z"
     style="font-size:50.3032px;line-height:1.25;font-family:Ubuntu;-inkscape-font-specification:Ubuntu;fill:url(#linearGradient918);stroke-width:1.25758"
     id="path865" />
  <path
     d="M 285.26816,271.50092 V 236.6408 h 21.02674 v 4.17516 h -16.14733 v 10.51337 h 14.33641 v 4.12486 h -14.33641 v 16.04673 z"
     style="font-size:50.3032px;line-height:1.25;font-family:Ubuntu;-inkscape-font-specification:Ubuntu;fill:url(#linearGradient920);stroke-width:1.25758"
     id="path867" />
  <path
     d="M 312.28091,271.50092 V 236.6408 h 21.27826 v 4.17516 h -16.39884 v 10.36246 h 14.58792 v 4.07456 h -14.58792 v 12.07277 h 17.65642 v 4.17517 z"
     style="font-size:50.3032px;line-height:1.25;font-family:Ubuntu;-inkscape-font-specification:Ubuntu;fill:url(#linearGradient922);stroke-width:1.25758"
     id="path869" />
  <path
     id="path1133-5"
     style="fill:url(#linearGradient964);fill-opacity:1;stroke:none;stroke-width:3.14001"
     d="m 181.88477,25 c -42.61428,0.08425 -77.55178,33.815368 -79.13282,76.40039 h 35.91602 c 1.76665,-24.499925 20.71974,-43.42921 43.54687,-43.492187 22.82788,0.06188 41.78212,18.991462 43.54883,43.492187 H 261.1582 C 259.57506,58.76098 224.55356,25.008736 181.88477,25 Z" />
  <path
     id="path1133-6-3"
     style="fill:url(#linearGradient888-7);fill-opacity:1;stroke:none;stroke-width:3.14001"
     d="m 88.041017,109.14061 v 21.4629 H 273.56836 v -21.4629 z m 0,29.20313 v 21.26758 H 273.56836 v -21.26758 z m 24.017573,29.00781 c 13.35385,25.01503 39.63909,41.98915 69.82618,42.04883 30.24093,-0.006 56.59265,-16.99202 69.96875,-42.04883 z" />
  <path
     d="m 146.39461,317.275 v 4.22542 h -23.27816 v -34.85967 h 5.41482 V 317.275 Z"
     style="font-size:52.9909px;line-height:1.25;font-family:Ubuntu;-inkscape-font-specification:Ubuntu;fill:url(#linearGradient935);stroke-width:1.25758"
     id="path872" />
  <path
     d="m 152.0885,286.64075 h 5.41482 v 34.85967 h -5.41482 z"
     style="font-size:52.9909px;line-height:1.25;font-family:Ubuntu;-inkscape-font-specification:Ubuntu;fill:url(#linearGradient937);stroke-width:1.25758"
     id="path874" />
  <path
     d="m 193.62071,321.50042 q -1.22811,-1.8612 -2.84698,-4.17512 -1.56303,-2.31392 -3.40519,-4.77874 -1.84216,-2.51513 -3.85179,-5.08055 -1.9538,-2.56544 -3.9076,-4.92965 -1.9538,-2.41453 -3.79596,-4.52723 -1.84216,-2.11271 -3.40519,-3.72239 v 27.21368 h -5.30319 v -34.85967 h 4.29837 q 2.62368,2.51513 5.58229,5.8854 3.01444,3.31997 5.91723,6.89144 2.95862,3.52119 5.52647,6.94176 2.62368,3.42057 4.41001,6.08661 v -25.80521 h 5.30318 v 34.85967 z"
     style="font-size:52.9909px;line-height:1.25;font-family:Ubuntu;-inkscape-font-specification:Ubuntu;fill:url(#linearGradient939);stroke-width:1.25758"
     id="path876" />
  <path
     d="m 236.381,286.64075 q -1.73051,1.71028 -3.90761,3.82299 -2.17709,2.06241 -4.57748,4.27572 -2.34456,2.16301 -4.68913,4.27572 -2.34455,2.1127 -4.41001,3.9236 2.40039,1.50907 5.07988,3.72238 2.67951,2.21331 5.24737,4.72845 2.56785,2.51512 4.80077,5.13085 2.28873,2.61573 3.79596,4.97996 h -6.36382 q -1.67468,-2.36423 -3.85178,-4.72845 -2.17709,-2.41452 -4.6333,-4.57753 -2.40039,-2.21331 -4.91242,-4.0745 -2.45621,-1.8612 -4.80078,-3.16907 v 16.54955 h -5.41481 v -34.85967 h 5.41481 v 15.39258 q 1.95381,-1.65998 4.29837,-3.72239 2.34457,-2.11271 4.63331,-4.22541 2.28873,-2.11271 4.29837,-4.0242 2.06544,-1.96181 3.46101,-3.42058 z"
     style="font-size:52.9909px;line-height:1.25;font-family:Ubuntu;-inkscape-font-specification:Ubuntu;fill:url(#linearGradient941);stroke-width:1.25758"
     id="path878" />
  <path
     d="m 346.07352,229.60453 v 1.52333 h -2.62211 v 6.79252 h -1.7231 v -6.79252 h -2.62211 v -1.52333 z m 9.48955,0 q 0.19978,1.2736 0.34962,3.2714 0.14983,1.97283 0.34961,5.04445 h -1.74807 q -0.025,-0.62432 -0.05,-1.32355 -0.025,-0.7242 -0.0749,-1.42343 -0.025,-0.7242 -0.0749,-1.42343 -0.05,-0.69923 -0.0999,-1.29857 -0.2747,0.47448 -0.59934,1.12376 -0.32464,0.62431 -0.64929,1.24863 -0.29967,0.62431 -0.59934,1.1737 -0.27469,0.5494 -0.42453,0.87404 h -1.22365 q -0.14984,-0.32464 -0.44951,-0.87404 -0.27469,-0.54939 -0.59934,-1.1737 -0.29967,-0.62432 -0.64928,-1.24863 -0.32464,-0.64928 -0.57437,-1.12376 -0.0499,0.59934 -0.0999,1.29857 -0.0499,0.69923 -0.0999,1.42343 -0.025,0.69923 -0.0499,1.42343 -0.025,0.69923 -0.05,1.32355 h -1.7231 q 0.19978,-3.07162 0.34961,-5.04445 0.14984,-1.9978 0.34962,-3.2714 h 1.64818 q 0.19978,0.42454 0.49945,1.02388 0.29967,0.59934 0.64929,1.29857 0.34961,0.69923 0.69923,1.42343 0.37459,0.7242 0.7242,1.39846 0.32464,-0.67426 0.69923,-1.39846 0.37459,-0.7242 0.7242,-1.42343 0.34962,-0.69923 0.64929,-1.29857 0.29967,-0.59934 0.49945,-1.02388 z"
     style="font-size:24.9725px;line-height:1.25;font-family:Ubuntu;-inkscape-font-specification:Ubuntu;fill:url(#linearGradient947);stroke-width:1.25758"
     id="path881" />
</svg>
