<svg width="381.26" height="347.25" version="1.1" viewBox="0 0 381.26 347.25" xmlns="http://www.w3.org/2000/svg" xmlns:xlink="http://www.w3.org/1999/xlink"><defs><linearGradient id="linearGradient5186"><stop stop-color="#ef2008" offset="0"/><stop stop-color="#ff6428" offset="1"/></linearGradient><linearGradient id="linearGradient1751" x1="225.77" x2="1111.2" y1="173.93" y2="173.93" gradientTransform="matrix(.45446 0 0 .45446 -81.538 174.14)" gradientUnits="userSpaceOnUse" xlink:href="#linearGradient5186"/><linearGradient id="linearGradient964" x1="51.714" x2="210.4" y1="99.77" y2="99.77" gradientTransform="translate(50.827 4.5748)" gradientUnits="userSpaceOnUse" xlink:href="#linearGradient5186"/><linearGradient id="linearGradient888-7" x1="171.37" x2="279.79" y1="186.73" y2="150.06" gradientTransform="translate(-27.823 -26.732)" gradientUnits="userSpaceOnUse"><stop stop-color="#157ee9" offset="0"/><stop stop-color="#3ecc78" offset="1"/></linearGradient><linearGradient id="linearGradient1426" x1="239.1" x2="855.44" y1="174.31" y2="174.31" gradientTransform="matrix(.47874 0 0 .47874 4.6406 236.12)" gradientUnits="userSpaceOnUse"><stop stop-color="#0d6eff" offset="0"/><stop stop-color="#45da64" offset="1"/></linearGradient><linearGradient id="linearGradient17043" x1="225.77" x2="1111.2" y1="173.93" y2="173.93" gradientTransform="matrix(.47133 0 0 .47133 232.53 145.94)" gradientUnits="userSpaceOnUse" xlink:href="#linearGradient5186"/></defs><g><text x="20.673925" y="271.50092" fill="url(#linearGradient1751)" font-family="sans-serif" font-size="50.303px" stroke-width="1.2576" style="line-height:1.25" xml:space="preserve"><tspan x="20.673925" y="271.50092" fill="url(#linearGradient1751)" font-family="Ubuntu" stroke-width="1.2576">PRIVACYSAFE</tspan></text><path d="m181.88 25c-42.614 0.08425-77.552 33.815-79.133 76.4h35.916c1.7666-24.5 20.72-43.429 43.547-43.492 22.828 0.06188 41.782 18.991 43.549 43.492h35.395c-1.5831-42.639-36.605-76.392-79.273-76.4z" fill="url(#linearGradient964)"/><path d="m88.041 109.14v21.463h185.53v-21.463zm0 29.203v21.268h185.53v-21.268zm24.018 29.008c13.354 25.015 39.639 41.989 69.826 42.049 30.241-6e-3 56.593-16.992 69.969-42.049z" fill="url(#linearGradient888-7)"/><text transform="scale(1.0534 .94927)" x="112.31324" y="338.68259" fill="url(#linearGradient1426)" font-family="sans-serif" font-size="52.991px" stroke-width="1.2576" style="line-height:1.25" xml:space="preserve"><tspan x="112.31324" y="338.68259" fill="url(#linearGradient1426)" font-family="Ubuntu" stroke-width="1.2576">LINK</tspan></text><text x="338.53183" y="246.91048" fill="url(#linearGradient17043)" font-family="sans-serif" font-size="24.972px" stroke-width="1.2576" style="line-height:1.25" xml:space="preserve"><tspan x="338.53183" y="246.91048" fill="url(#linearGradient17043)" font-family="Ubuntu" font-size="24.972px" stroke-width="1.2576">™</tspan></text></g></svg>
