<svg width="975" height="969.7" version="1.1" viewBox="0 0 975 969.7" xmlns="http://www.w3.org/2000/svg" xmlns:xlink="http://www.w3.org/1999/xlink">
 <defs>
  <linearGradient id="linearGradient10645-1" x1="51.714" x2="210.4" y1="99.77" y2="99.77" gradientTransform="matrix(.69714 0 0 .73736 -14.608 -14.821)" gradientUnits="userSpaceOnUse">
   <stop stop-color="#ef2008" offset="0"/>
   <stop stop-color="#ff6428" offset="1"/>
  </linearGradient>
  <linearGradient id="linearGradient11950-3" x1="115.86" x2="301.39" y1="186" y2="186" gradientTransform="matrix(.75461 0 0 .75558 -80.625 -37.021)" gradientUnits="userSpaceOnUse" xlink:href="#linearGradient1884"/>
  <linearGradient id="linearGradient1884">
   <stop stop-color="#157ee9" offset="0"/>
   <stop stop-color="#3ecc78" offset="1"/>
  </linearGradient>
  <linearGradient id="linearGradient11952-3" x1="115.86" x2="301.39" y1="186" y2="186" gradientTransform="matrix(.78995 0 0 .82597 -88.909 -69.381)" gradientUnits="userSpaceOnUse" xlink:href="#linearGradient1884"/>
 </defs>
 <g transform="matrix(5.9071 0 0 5.9071 37.715 120.07)" stroke-width=".16929">
  <path d="m76.758 0.23983c-29.708 0.062125-54.065 24.934-55.167 56.335h25.038c1.2316-18.065 14.445-32.023 30.358-32.069 15.914 0.04565 29.128 14.004 30.36 32.069h24.675c-1.1037-31.441-25.519-56.328-55.265-56.335z" fill="url(#linearGradient10645-1)"/>
  <path d="m6.8068 65.642v16.217l140 8e-6v-16.217z" fill="url(#linearGradient11950-3)"/>
  <path d="m21.591 90.926c10.549 20.662 31.313 34.682 55.159 34.731 23.889-5e-3 44.705-14.035 55.272-34.731z" fill="url(#linearGradient11952-3)"/>
 </g>
</svg>
